<svg xmlns="http://www.w3.org/2000/svg" viewBox="0 0 512 335.45"><defs><style>.cls-1{fill:#41479b;}.cls-2{fill:#f5f5f5;}.cls-3{fill:#ff4b55;}</style></defs><title>eng</title><g id="Слой_2" data-name="Слой 2"><g id="Layer_1" data-name="Layer 1"><path class="cls-1" d="M503.17,335.45H8.83A8.83,8.83,0,0,1,0,326.62V8.83A8.83,8.83,0,0,1,8.83,0H503.17A8.83,8.83,0,0,1,512,8.83V326.62A8.83,8.83,0,0,1,503.17,335.45Z"/><path class="cls-2" d="M512,8.83A8.83,8.83,0,0,0,503.17,0H463.68L300.14,107.15V0H211.86V107.15L48.32,0H8.83A8.83,8.83,0,0,0,0,8.83V31.66l140.31,91.93H0v88.27H140.31L0,303.79v22.83a8.83,8.83,0,0,0,8.83,8.83H48.32L211.86,228.3V335.45h88.28V228.3L463.68,335.45h39.49a8.83,8.83,0,0,0,8.83-8.83V303.79L371.69,211.86H512V123.59H371.69L512,31.66Z"/><polygon class="cls-3" points="512 141.24 282.48 141.24 282.48 0 229.52 0 229.52 141.24 0 141.24 0 194.21 229.52 194.21 229.52 335.45 282.48 335.45 282.48 194.21 512 194.21 512 141.24"/><path class="cls-3" d="M179,211.86.25,327.86a8.73,8.73,0,0,0,8.58,7.59H21L211.38,211.86Z"/><path class="cls-3" d="M346.39,211.86H314L504.07,335.27a8.75,8.75,0,0,0,7.93-8.65v-7.26Z"/><path class="cls-3" d="M0,18.57l161.78,105h32.43L5.14.86A8.79,8.79,0,0,0,0,8.83Z"/><path class="cls-3" d="M332.57,123.59,511.69,7.31A8.7,8.7,0,0,0,503.17,0H490.52L300.14,123.59Z"/></g></g></svg>